<?xml version="1.0" standalone="no"?>
<!DOCTYPE svg PUBLIC "-//W3C//DTD SVG 20010904//EN"
 "http://www.w3.org/TR/2001/REC-SVG-20010904/DTD/svg10.dtd">
<svg version="1.0" xmlns="http://www.w3.org/2000/svg"
 width="512.000000pt" height="512.000000pt" viewBox="0 0 512.000000 512.000000"
 preserveAspectRatio="xMidYMid meet">
<metadata>
Created by potrace 1.11, written by Peter Selinger 2001-2013
</metadata>
<g transform="translate(0.000000,512.000000) scale(0.100000,-0.100000)"
fill="#000000" stroke="none">
<path d="M0 2560 l0 -2560 2560 0 2560 0 0 2560 0 2560 -2560 0 -2560 0 0
-2560z m2061 2055 c101 -74 123 -85 168 -85 36 0 60 9 111 40 83 51 145 70
235 70 96 0 161 -19 237 -68 54 -35 73 -42 115 -42 41 0 58 6 93 33 100 75
104 77 150 77 73 0 144 -41 180 -103 38 -66 46 -131 26 -199 -19 -66 -78 -160
-144 -227 l-48 -51 -606 0 -606 0 -64 69 c-36 38 -79 98 -98 132 -97 182 -7
377 176 379 28 0 51 -8 75 -25z m1374 -1191 c171 -226 326 -431 346 -455 185
-223 335 -594 389 -962 l19 -127 64 -64 c107 -105 164 -227 174 -373 8 -107
-9 -187 -59 -292 -52 -109 -141 -200 -249 -256 -58 -29 -81 -48 -95 -74 -58
-109 -182 -230 -291 -285 -116 -58 -81 -56 -1153 -56 -1083 0 -1040 -2 -1167
61 -70 35 -157 109 -215 182 -21 27 -64 66 -96 86 -158 103 -261 291 -262 477
0 64 29 194 53 241 14 26 13 29 -30 82 -151 185 -180 423 -77 630 51 103 152
203 257 255 l78 38 44 94 c62 133 135 250 229 368 44 56 206 269 360 474 l278
372 547 -2 546 -3 310 -411z"/>
<path d="M2545 3361 c-41 -10 -80 -37 -102 -69 -13 -20 -19 -54 -23 -130 l-5
-103 -80 -27 c-198 -66 -326 -195 -361 -363 -30 -145 3 -248 115 -351 82 -76
184 -131 418 -227 288 -118 373 -168 420 -249 71 -121 -3 -253 -175 -311 -77
-26 -235 -29 -326 -5 -71 18 -173 67 -254 123 -31 21 -71 46 -89 55 -40 20
-112 21 -141 0 -50 -35 -66 -116 -36 -180 46 -96 250 -207 452 -245 l62 -12 0
-99 c0 -113 14 -155 62 -189 59 -43 152 -43 204 -1 48 40 59 71 64 185 l5 110
69 17 c149 39 286 131 355 238 52 81 73 155 75 262 1 89 -1 100 -32 162 -68
139 -209 231 -552 359 -91 33 -200 79 -243 101 -148 77 -196 170 -141 279 50
99 232 159 400 130 86 -15 146 -42 252 -114 75 -51 88 -57 135 -57 147 0 181
139 61 250 -58 53 -185 114 -296 142 l-88 21 0 84 c0 91 -14 137 -51 173 -39
36 -102 53 -154 41z"/>
</g>
</svg>
